<svg id="Capa_1" data-name="Capa 1" xmlns="http://www.w3.org/2000/svg" width="59.6" height="26.29" viewBox="0 0 59.6 38"><defs><style>.cls-1{fill:#003565;}.cls-2{fill:#545454;}</style></defs><g id="Store"><path class="cls-1" d="M24.09,9.84v.56h1.39L26,12.11c.72,2.24,1.53,4.57,1.71,4.91s.34.25,3.38.22l3.24,0,.19-.53.18-.52H28.58l-.14-.37C28.13,15,28,15,31.72,15h3.43l.08-.44a1.06,1.06,0,0,0,0-.54A28.41,28.41,0,0,0,31.53,14l-3.65.07-.21-.5a4.06,4.06,0,0,1-.21-.58s1.88-.07,4.19-.07h4.2l.08-.43c0-.24.08-.49.08-.56a38.79,38.79,0,0,0-4.45-.13H27.1l-.19-.53c-.11-.28-.3-.86-.46-1.26l-.27-.73H24.09Z"/><path class="cls-1" d="M7.9,10.83a5.58,5.58,0,0,0-4.13,1.95,3.8,3.8,0,0,0-.91,2.81,3,3,0,0,0,.41,1.81c.72,1.29,1.67,1.81,5,2.66,1.18.31,2.27.65,2.45.73a1.29,1.29,0,0,1,.45,2.06c-.94,1.12-4.67.9-6.71-.39-.38-.24-.73-.39-.8-.32a14.83,14.83,0,0,0-1,2.51c0,.25,1.77,1,3.07,1.34a13.83,13.83,0,0,0,5,.13,5.47,5.47,0,0,0,3.9-2.79,5.24,5.24,0,0,0,.11-3.14,4.15,4.15,0,0,0-2.06-2,21.4,21.4,0,0,0-2.79-.84c-2.19-.52-3-.85-3.35-1.36a1.49,1.49,0,0,1,1-2.19,8.76,8.76,0,0,1,5.1.55c.31.15.62.24.68.17a12.32,12.32,0,0,0,.53-1.33l.45-1.24-.53-.26a9.18,9.18,0,0,0-3-.79l-1.3-.13C9.22,10.75,8.51,10.78,7.9,10.83Z"/><path class="cls-1" d="M17.08,12.85v1.48H15.26V17h1.8l.05,3.25c.06,3.61.13,4,1,4.84a4.11,4.11,0,0,0,3.27,1.1c1.47,0,2.82-.34,2.68-.69l-.44-1.25c-.3-.9-.42-1.08-.61-1-1.08.45-1.74.42-2.2-.08-.24-.27-.27-.59-.31-3.23L20.43,17l1.45,0,1.44,0,0-.7c0-.39,0-1,0-1.31l0-.58h-2.8V11.38H17.08Z"/><path class="cls-1" d="M44.77,14.33a4.59,4.59,0,0,0-1.5.84c-.65.57-.65.57-.73.24a2.3,2.3,0,0,1,0-.75l0-.4H39.31l0,5.91,0,5.94h3.49l0-3.62c0-3.61,0-3.63.4-4.14a3.11,3.11,0,0,1,2.62-1.22h.88V14.05h-.52A6.35,6.35,0,0,0,44.77,14.33Z"/><path class="cls-1" d="M51.81,14.27a6,6,0,0,0-4.46,6.59,6.1,6.1,0,0,0,3.07,4.59c2.58,1.31,6.15,1,7.85-.77l.52-.54-.88-.9-.9-.89-.69.46c-1.71,1.19-4.22.9-5.17-.6a2.59,2.59,0,0,1-.41-.91c0-.27.11-.28,3.41-.24,1.86,0,3.85,0,4.43,0l1,0-.05-1.38a4.63,4.63,0,0,0-.49-2.27,5.4,5.4,0,0,0-2.16-2.48A7,7,0,0,0,51.81,14.27Zm2.66,2.51a2.61,2.61,0,0,1,1.88,2.09v.36H53.56a18,18,0,0,1-2.86-.11c-.13-.19.31-1.18.7-1.6A2.76,2.76,0,0,1,54.47,16.78Z"/><path class="cls-1" d="M25.72,16.18a6.39,6.39,0,0,0-1.09,5.59c.78,2.82,3.12,4.48,6.31,4.48a6.18,6.18,0,0,0,6.37-7.2,7.15,7.15,0,0,0-1.25-2.94c-.24-.21-.3-.13-.87,1.67a5.52,5.52,0,0,1-.89,2c-.18.1-.25.29-.25.73a3.4,3.4,0,0,1-1.37,2.4,2.43,2.43,0,0,1-1.49.47,4.61,4.61,0,0,1-1.42-.11,3.49,3.49,0,0,1-2.11-3.25,11.26,11.26,0,0,0-.7-2.44,18,18,0,0,1-.62-1.71C26.34,15.6,26.07,15.73,25.72,16.18Z"/><path class="cls-1" d="M28.68,18.08a.84.84,0,0,0,.59,1.43.8.8,0,0,0,.57-1.4A.79.79,0,0,0,28.68,18.08Z"/><path class="cls-1" d="M32.51,18.11c-.76.76.17,1.77,1.13,1.26.19-.09.27-.29.27-.61A.81.81,0,0,0,32.51,18.11Z"/></g><path id="Flecha" class="cls-2" d="M43.65,0s.45.52,1,1.12a6.58,6.58,0,0,1,.92,1.11s-1.45,0-3.18-.1A92.91,92.91,0,0,0,19.89,3.63c-7.48,1.58-13,3.9-16.6,7A9.14,9.14,0,0,0,.07,16.13c-.15,1.09,0,2.42.2,2.42.08,0,.11-.24,0-.63C0,15.86,1.86,13,4.72,11a28.52,28.52,0,0,1,6.6-3.24,15.5,15.5,0,0,0,1.5-.45A80.82,80.82,0,0,1,27.25,4.38c4-.42,18.72-.3,19.15.15a8.16,8.16,0,0,1-.67,1.32,4.5,4.5,0,0,0-.64,1.35,33.45,33.45,0,0,0,4.7-4.15c0-.28-.64-.64-3-1.73S43.65-.08,43.65,0Z"/></svg>