<svg id="Capa_1" data-name="Capa 1" xmlns="http://www.w3.org/2000/svg" width="56.022" height="39.419" viewBox="0 0 56.022 39.419"><defs><style>.cls-1{fill:#4a8bc6;}.cls-2{fill:#fff;}</style></defs><g id="Store"><path class="cls-1" d="M22.647,9.247v.528h1.305l.528,1.608c.672,2.109,1.436,4.3,1.608,4.613.118.224.316.237,3.176.211l3.045-.04.172-.5.171-.488H26.865l-.131-.343c-.29-.738-.4-.712,3.084-.712h3.216l.079-.408a1.106,1.106,0,0,0,.013-.514,27.223,27.223,0,0,0-3.493-.04l-3.427.066-.2-.474a3.718,3.718,0,0,1-.2-.541c0-.039,1.766-.066,3.941-.066h3.941l.079-.408c.04-.224.079-.462.079-.528a37.191,37.191,0,0,0-4.191-.118H25.468l-.171-.5c-.106-.264-.29-.8-.435-1.186l-.251-.686H22.647Z"/><path class="cls-1" d="M7.423,10.183a5.217,5.217,0,0,0-3.875,1.832,3.539,3.539,0,0,0-.857,2.637,2.771,2.771,0,0,0,.382,1.7c.673,1.213,1.569,1.7,4.653,2.5,1.108.29,2.136.607,2.307.686a1.215,1.215,0,0,1,.422,1.937c-.883,1.055-4.389.844-6.314-.369-.356-.224-.685-.369-.751-.3a14.1,14.1,0,0,0-.91,2.36c0,.237,1.661.962,2.887,1.265a13.172,13.172,0,0,0,4.692.119,5.151,5.151,0,0,0,3.665-2.623,5,5,0,0,0,.105-2.953,3.906,3.906,0,0,0-1.937-1.885A18.7,18.7,0,0,0,9.269,16.3c-2.057-.487-2.821-.8-3.151-1.278a1.4,1.4,0,0,1,.949-2.057,8.31,8.31,0,0,1,4.8.514c.29.145.58.225.633.159a9.545,9.545,0,0,0,.5-1.253l.422-1.159-.5-.251a8.689,8.689,0,0,0-2.821-.738c-.461-.04-1-.092-1.226-.119A13.771,13.771,0,0,0,7.423,10.183Z"/><path class="cls-1" d="M16.057,12.081v1.384H14.343V15.97h1.688l.052,3.058c.053,3.387.119,3.717.923,4.547A3.852,3.852,0,0,0,20.077,24.6c1.384,0,2.65-.316,2.518-.645-.027-.08-.211-.607-.409-1.174-.29-.843-.395-1.015-.58-.949-1.015.422-1.634.4-2.069-.079-.224-.25-.251-.553-.29-3.031l-.04-2.742,1.358-.04,1.357-.039-.026-.659c-.013-.369-.026-.91-.026-1.226l-.013-.554H19.22V10.7H16.057Z"/><path class="cls-1" d="M42.076,13.465a4.512,4.512,0,0,0-1.41.791c-.606.541-.606.541-.685.224a2.02,2.02,0,0,1-.04-.7l.04-.383H36.949l-.04,5.563-.026,5.575h3.282l.04-3.4c.039-3.388.039-3.414.369-3.889A2.943,2.943,0,0,1,43.039,16.1h.83V13.2l-.488.013A6.068,6.068,0,0,0,42.076,13.465Z"/><path class="cls-1" d="M48.693,13.413a5.605,5.605,0,0,0-4.191,6.2,5.731,5.731,0,0,0,2.886,4.31c2.426,1.239,5.787.909,7.382-.725l.488-.5-.831-.843-.843-.844-.646.435c-1.608,1.12-3.968.844-4.864-.567a2.513,2.513,0,0,1-.382-.857c0-.25.1-.263,3.2-.224,1.753.027,3.624.04,4.165.027l.962-.027L55.969,18.5a4.167,4.167,0,0,0-.461-2.136,5.074,5.074,0,0,0-2.03-2.333A6.514,6.514,0,0,0,48.693,13.413ZM51.2,15.772a2.457,2.457,0,0,1,1.766,1.964v.343H50.341a16.713,16.713,0,0,1-2.689-.106c-.119-.184.29-1.107.659-1.5A2.591,2.591,0,0,1,51.2,15.772Z"/><path class="cls-1" d="M24.176,15.205a6.048,6.048,0,0,0-1.028,5.26,5.732,5.732,0,0,0,5.932,4.2,5.8,5.8,0,0,0,5.984-6.762,6.617,6.617,0,0,0-1.173-2.768c-.224-.2-.277-.118-.817,1.569a5.24,5.24,0,0,1-.831,1.911c-.171.092-.237.277-.237.686a3.187,3.187,0,0,1-1.292,2.254,2.246,2.246,0,0,1-1.4.448,4.4,4.4,0,0,1-1.331-.106A3.287,3.287,0,0,1,26,18.843a10,10,0,0,0-.659-2.293,16.735,16.735,0,0,1-.58-1.608C24.756,14.665,24.506,14.783,24.176,15.205Z"/><path class="cls-1" d="M26.958,17a.785.785,0,0,0,.553,1.344.756.756,0,0,0,.541-1.318A.74.74,0,0,0,26.958,17Z"/><path class="cls-1" d="M30.556,17.024c-.712.712.158,1.661,1.068,1.187.171-.093.25-.277.25-.58A.76.76,0,0,0,30.556,17.024Z"/></g><path id="Flecha" class="cls-2" d="M41.027.017c0,.027.419.491.931,1.05a6.054,6.054,0,0,1,.866,1.05c-.027.027-1.365-.014-2.991-.1A87.569,87.569,0,0,0,18.691,3.412C11.661,4.9,6.493,7.079,3.1,10a8.586,8.586,0,0,0-3.03,5.167C-.078,16.186.027,17.44.25,17.44c.079,0,.1-.232.052-.6-.288-1.936,1.443-4.648,4.132-6.5a26.554,26.554,0,0,1,6.2-3.04c.17-.027.813-.218,1.416-.422A75.508,75.508,0,0,1,25.616,4.121c3.79-.4,17.588-.287,17.994.136A7.419,7.419,0,0,1,42.981,5.5a4.616,4.616,0,0,0-.6,1.268,31.154,31.154,0,0,0,4.42-3.9c0-.259-.6-.6-2.82-1.623C41.735.208,41.027-.078,41.027.017Z"/><g id="Nombre"><path class="cls-2" d="M.7,33.287A6.265,6.265,0,0,1,1.246,30.9a12.728,12.728,0,0,1,1.582-2.7,14.192,14.192,0,0,1,2.3-2.457,8.355,8.355,0,0,1,2.352-1.49,2.69,2.69,0,0,1,.98-.2.888.888,0,0,1,.882.448,1.129,1.129,0,0,1,.126.56,2.916,2.916,0,0,1-.189.923,10.9,10.9,0,0,1-.6,1.344A14.75,14.75,0,0,1,7.8,28.884q-.449.679-.63.735H7.154a.173.173,0,0,1-.112-.048.141.141,0,0,1-.056-.106,3.7,3.7,0,0,1,.35-.721,8.407,8.407,0,0,1,.518-.861.237.237,0,0,1,.126-.077.08.08,0,0,1,.084.05c.009.018,0,.062-.035.132a2.822,2.822,0,0,1-.175.3A5.161,5.161,0,0,0,7.448,29a2.765,2.765,0,0,0,.231-.336c.145-.223.282-.448.413-.672q.42-.756.882-1.8a2.618,2.618,0,0,0,.294-1.107.844.844,0,0,0-.126-.489.771.771,0,0,0-.7-.322,2.559,2.559,0,0,0-.714.126,4.785,4.785,0,0,0-.658.294c-.271.139-.518.28-.742.42a12.516,12.516,0,0,0-2.2,1.9,15.359,15.359,0,0,0-1.862,2.429,10.035,10.035,0,0,0-1.127,2.428,4.459,4.459,0,0,0-.161.7,6.333,6.333,0,0,0-.035.743c0,.2,0,.349.007.462a1.415,1.415,0,0,0,.063.349A1.731,1.731,0,0,0,2.1,35.415a1.591,1.591,0,0,0,.5.071,2.344,2.344,0,0,0,.574-.071,9.885,9.885,0,0,0,3.458-2.141q.615-.547,1.568-1.429t1.274-1.218c.121-.121.2-.181.224-.181a.106.106,0,0,1,.077.035.108.108,0,0,1,.035.077A11.71,11.71,0,0,1,8.6,31.769q-1.212,1.142-1.925,1.757a15.193,15.193,0,0,1-1.939,1.427,5.174,5.174,0,0,1-1.589.686A2.143,2.143,0,0,1,2.6,35.7a1.9,1.9,0,0,1-.434-.042,1.3,1.3,0,0,1-.364-.141,1.824,1.824,0,0,1-.448-.328,1.765,1.765,0,0,1-.35-.47A3.157,3.157,0,0,1,.7,33.287Z"/><path class="cls-2" d="M12.361,30.431a.148.148,0,0,1,.015.07q.014.1-.743.8a2.43,2.43,0,0,1-.825.6.242.242,0,0,1-.266-.078.384.384,0,0,1-.07-.315c.018-.093.07-.279.154-.56a3.007,3.007,0,0,0,.21-.658c-.01-.018-.057,0-.141.071s-.172.139-.265.223a8.063,8.063,0,0,0-.952,1.162c-.112.159-.2.276-.259.35s-.11.112-.148.112c-.055,0-.084-.009-.084-.028-.027-.027-.023-.1.015-.21s.158-.415.364-.909q.392-.953,1.14-2.353a17.467,17.467,0,0,1,1.156-1.945.535.535,0,0,1,.119-.148.224.224,0,0,1,.133-.035c.065,0,.1.062.1.183a.19.19,0,0,1-.029.119.164.164,0,0,1-.1.049c-.038,0-.08.027-.126.084a2.451,2.451,0,0,0-.2.294q-.659,1.079-1.316,2.393c-.187.365-.353.707-.5,1.03a3.3,3.3,0,0,0-.217.539c0,.027.051-.029.154-.168a5.558,5.558,0,0,1,.553-.631,2.289,2.289,0,0,1,.469-.378.257.257,0,0,1,.14-.027.2.2,0,0,1,.182.084.161.161,0,0,1,.028.111,1.353,1.353,0,0,1-.028.183c0,.008-.066.218-.2.629-.15.412-.183.617-.1.617q.183,0,1.177-.953c.224-.223.354-.335.392-.335A.054.054,0,0,1,12.361,30.431Z"/><path class="cls-2" d="M14.4,30.34c.069,0,.1.022.1.077a.12.12,0,0,1-.069.1c-.047.027-.182.088-.407.181a1.991,1.991,0,0,1-.644.182.268.268,0,0,1-.245-.126.777.777,0,0,1-.076-.391v-.239l-.113.126a9.277,9.277,0,0,0-.84,1.218c-.186.317-.3.477-.35.477a.117.117,0,0,1-.069-.042q-.042-.029-.042-.057l.027-.111a3.814,3.814,0,0,1,.2-.546q.153-.364.279-.6c.057-.112.1-.193.133-.245s.068-.077.1-.077c.056-.009.089,0,.1.042l.015.057a.361.361,0,0,1-.057.139l-.042.1c0,.018.066-.066.2-.253a1.958,1.958,0,0,1,.349-.4.2.2,0,0,1,.239-.021.162.162,0,0,1,.063.119c0,.052.006.148.006.287a.629.629,0,0,0,.042.28.141.141,0,0,0,.155.056,2.071,2.071,0,0,0,.517-.181A1.729,1.729,0,0,1,14.4,30.34Z"/><path class="cls-2" d="M15.792,30.5c.009.057-.2.28-.637.672a5.719,5.719,0,0,1-.847.687.822.822,0,0,1-.182.027.277.277,0,0,1-.168-.042.3.3,0,0,1-.1-.237,2.35,2.35,0,0,1,.35-.939,3.662,3.662,0,0,1,.266-.427c.056-.07.1-.105.14-.105.065,0,.1.023.1.07a.611.611,0,0,1-.14.309,4.717,4.717,0,0,0-.343.643,1.451,1.451,0,0,0-.147.462q0,.281,1.106-.769c.14-.141.25-.245.329-.316a.341.341,0,0,1,.175-.105A.1.1,0,0,1,15.792,30.5Zm-.9-.882a.171.171,0,0,1,.042-.084q.042-.126.126-.126a.137.137,0,0,1,.1.029.056.056,0,0,1,.028.055.249.249,0,0,1-.07.14.317.317,0,0,1-.1.077.157.157,0,0,1-.1-.035A.079.079,0,0,1,14.9,29.619Z"/><path class="cls-2" d="M17.478,30.572c-.1.055-.222.121-.371.2q-.686.363-.826.447L16,31.4v.168a.869.869,0,0,1-.295.615,1.56,1.56,0,0,1-.364.238,1.478,1.478,0,0,1-.378.141l-.1.013a.278.278,0,0,1-.2-.181c0-.075.077-.2.231-.371a3.844,3.844,0,0,1,.567-.512l.252-.182a.782.782,0,0,0-.07-.252.958.958,0,0,1-.1-.406.53.53,0,0,1,.112-.329,1.176,1.176,0,0,1,.364-.287,1.131,1.131,0,0,1,.238-.084.136.136,0,0,1,.154.154.2.2,0,0,1-.07.175c-.047.033-.093.022-.14-.035a.043.043,0,0,0-.042-.027.127.127,0,0,0-.056.013.841.841,0,0,0-.259.217.411.411,0,0,0-.1.245,1.352,1.352,0,0,0,.077.267.477.477,0,0,0,.091.181.314.314,0,0,0,.106-.035,1.707,1.707,0,0,0,.188-.1c.243-.141.525-.294.847-.462a3.735,3.735,0,0,1,.525-.253.106.106,0,0,1,.091.05.074.074,0,0,1,.007.091C17.644,30.473,17.576,30.516,17.478,30.572Zm-2.5,1.778a.481.481,0,0,0,.211-.084,1.006,1.006,0,0,0,.587-.589c.019-.074.023-.111.014-.111-.018-.019-.159.086-.42.314a2.967,2.967,0,0,0-.448.442C14.9,32.368,14.914,32.377,14.979,32.35Z"/><path class="cls-2" d="M19.487,27.617q-.028,0-.084-.006c-.037,0-.091.048-.161.161s-.17.27-.3.475l-.182.294.294-.013.2-.015c.075,0,.117.015.126.042a.083.083,0,0,1,.042.07.1.1,0,0,1-.028.071.846.846,0,0,1-.168.013,1.884,1.884,0,0,0-.224.014l-.349.015-.183.322q-1.4,2.492-1.218,2.743c.028.057.138.021.329-.105a11.345,11.345,0,0,0,.945-.749,6.636,6.636,0,0,1,.728-.587.09.09,0,0,1,.084.069.059.059,0,0,1,0,.077,2.615,2.615,0,0,1-.2.189q-.168.155-.462.407-.546.476-.749.623a2.28,2.28,0,0,1-.385.23.655.655,0,0,1-.28.1.48.48,0,0,1-.112-.027c-.084-.029-.125-.126-.125-.294a1.865,1.865,0,0,1,.111-.561q.084-.237.378-.847t.546-1.043a3.238,3.238,0,0,0,.28-.5c.019-.019-.009-.029-.084-.029-.2,0-.361,0-.469.007s-.189.008-.245.008a.472.472,0,0,1-.133-.015.057.057,0,0,1-.049-.055c0-.047.033-.08.1-.1a1.8,1.8,0,0,1,.337-.042c.214,0,.368,0,.461-.014l.252-.013.154-.267c.1-.177.245-.4.427-.671s.32-.467.414-.589a.3.3,0,0,1,.139-.1.1.1,0,0,1,.112.035.206.206,0,0,1,.028.084,1.128,1.128,0,0,1-.14.378C19.576,27.543,19.524,27.617,19.487,27.617Z"/><path class="cls-2" d="M20.607,30.5c.01.057-.2.28-.636.672a5.775,5.775,0,0,1-.847.687.821.821,0,0,1-.183.027.276.276,0,0,1-.167-.042.3.3,0,0,1-.1-.237,2.359,2.359,0,0,1,.349-.939,3.77,3.77,0,0,1,.267-.427c.056-.07.1-.105.14-.105.065,0,.1.023.1.07a.611.611,0,0,1-.14.309,4.836,4.836,0,0,0-.344.643,1.479,1.479,0,0,0-.147.462q0,.281,1.106-.769c.141-.141.25-.245.33-.316a.341.341,0,0,1,.175-.105A.1.1,0,0,1,20.607,30.5Zm-.9-.882a.181.181,0,0,1,.042-.084q.044-.126.126-.126a.138.138,0,0,1,.1.029.055.055,0,0,1,.027.055.246.246,0,0,1-.069.14.305.305,0,0,1-.1.077c-.018,0-.051-.007-.1-.035A.081.081,0,0,1,19.711,29.619Z"/><path class="cls-2" d="M22.728,30.375a.13.13,0,0,1,.035.084,3.687,3.687,0,0,1-.385.448q-.384.421-.595.617a.811.811,0,0,1-.518.294c-.131,0-.21-.089-.238-.267v-.069a1.189,1.189,0,0,1,.014-.21.51.51,0,0,0,.014-.2l-.35.308c-.112.1-.2.185-.28.245s-.126.106-.154.133a.373.373,0,0,1-.168.042.276.276,0,0,1-.2-.056.264.264,0,0,1-.07-.2,1.01,1.01,0,0,1,.14-.434,3.472,3.472,0,0,1,.441-.671,1.445,1.445,0,0,1,.483-.407.639.639,0,0,1,.14-.055.213.213,0,0,1,.112,0,.349.349,0,0,1,.224.279v.07c0,.121-.033.183-.1.183-.084,0-.126-.07-.126-.211a.187.187,0,0,0-.014-.084.043.043,0,0,0-.042-.027q-.155,0-.462.349a3.011,3.011,0,0,0-.476.714,1.108,1.108,0,0,0-.1.322c0,.047.047.034.14-.042s.28-.242.56-.5a3.731,3.731,0,0,1,.5-.433.1.1,0,0,1,.126.013c.037.038.042.1.014.2a2.607,2.607,0,0,0-.119.356,1.237,1.237,0,0,0-.049.287c0,.1.019.155.056.155s.152-.078.315-.232.371-.366.623-.637a3.8,3.8,0,0,1,.434-.406Q22.694,30.333,22.728,30.375Z"/><path class="cls-2" d="M25.564,30.572c0,.055-.057.121-.168.2l-.547.4q-.391.267-.588.378a.685.685,0,0,1-.308.112.228.228,0,0,1-.168-.055.254.254,0,0,1-.055-.183,2.579,2.579,0,0,1,.111-.56l.1-.377c.008-.057,0-.084-.015-.084a1.62,1.62,0,0,0-.588.349,7.4,7.4,0,0,0-.742.687l-.5.5a.09.09,0,0,1-.069.02.323.323,0,0,1-.057-.02.085.085,0,0,1-.042-.071,1.109,1.109,0,0,1,.1-.307q.139-.307.363-.764a5.8,5.8,0,0,1,.322-.595c.056-.093.1-.139.14-.139.084,0,.126.027.126.084a.342.342,0,0,1-.055.153c-.047.065-.155.262-.323.589l-.238.447.308-.294a4.919,4.919,0,0,1,1.023-.769,1.682,1.682,0,0,1,.2-.078.239.239,0,0,1,.126-.006.129.129,0,0,1,.126.126.337.337,0,0,1,.014.111,2.842,2.842,0,0,1-.125.6,2,2,0,0,0-.071.365c0,.047.014.069.042.069a.292.292,0,0,0,.112-.056c.149-.092.378-.25.687-.468s.494-.358.559-.413c.084-.066.144-.071.183-.014Z"/><path class="cls-2" d="M32.31,29.129a3.767,3.767,0,0,1,.91.112,2.406,2.406,0,0,1,1.555,1.106l.1.2v.015h.013v.014a1.88,1.88,0,0,1,.183.524,4.488,4.488,0,0,1,.042.693v.5l.2-.027.21-.057,2.311-4.536.966-1.932a5.2,5.2,0,0,0,.349-.784c0-.055-.139.113-.42.5a12.678,12.678,0,0,0-.882,1.33,7.374,7.374,0,0,0-.49,1.043q-.2.526-.126.595c.029.019.033.052.015.1,0,.037-.022.06-.064.069a.121.121,0,0,1-.119-.042.19.19,0,0,1-.055-.14,3.267,3.267,0,0,1,.342-1.063,10.435,10.435,0,0,1,.791-1.456q.3-.434.707-.946a3.919,3.919,0,0,1,.539-.594.23.23,0,0,1,.1-.029c.074,0,.116.029.126.084v.029a.848.848,0,0,1-.07.252q-.337.713-1.2,2.428T36.5,30.768l-.687,1.386c.01.008.443-.089,1.3-.294q.854-.252,2.057-.63l.462-.155.309-.574q.825-1.568,1.525-2.751t1.681-2.667l.644-.993c.055-.094.116-.141.181-.141.057.019.084.071.084.155a.149.149,0,0,1-.069.139,8.557,8.557,0,0,0-.645.939q-.657,1.008-1.085,1.7t-1,1.687c-.223.373-.5.858-.818,1.456a8.651,8.651,0,0,0-.47.923,9.243,9.243,0,0,0,.91-.294q.9-.308,1.065-.377a.426.426,0,0,1,.182-.057c.055,0,.084.038.084.112,0,.047-.08.1-.239.161s-.531.19-1.12.385l-1.063.364-.714,1.443q-.7,1.4-1.058,2.183t-.665,1.569q-.237.63-.469,1.33a5.271,5.271,0,0,0-.23.8c0,.037.027.032.084-.015a.109.109,0,0,1,.056-.049.076.076,0,0,1,.055.007.117.117,0,0,1,.057.084.309.309,0,0,1-.112.2c-.15.131-.262.158-.336.084a.157.157,0,0,1-.029-.112A7.175,7.175,0,0,1,36.93,37q.351-1.008.742-1.9t1.149-2.415q.671-1.331.643-1.33l-.42.126q-.783.264-1.637.51c-.57.163-1.036.278-1.4.343l-.322.07-.336.672c-.074.14-.215.425-.42.854l-.321.658q-.267.561-.4.819c-.089.173-.152.259-.19.259-.065,0-.1-.028-.1-.084a4.812,4.812,0,0,1,.294-.952c.309-.877.5-1.483.575-1.819l.055-.252-.5.069q-.8.113-1.211.141t-1.1.027c-.477,0-.824-.009-1.043-.027a4.377,4.377,0,0,1-.749-.141,2.624,2.624,0,0,1-1.078-.511.984.984,0,0,1-.378-.762,1.308,1.308,0,0,1,.3-.791,3.022,3.022,0,0,1,.8-.722l.462-.252A4.385,4.385,0,0,1,32.31,29.129Zm-3.246,2.548a1.48,1.48,0,0,0,.775.609,4.476,4.476,0,0,0,1.436.3c.168.01.382.015.644.015q.433,0,.728-.015.544-.027,1.364-.126a4.472,4.472,0,0,0,.862-.139,1.153,1.153,0,0,0,.042-.358c.008-.219.008-.4,0-.539a2.163,2.163,0,0,0-1.2-1.792,3.117,3.117,0,0,0-1.359-.308,4.08,4.08,0,0,0-.909.113,4.644,4.644,0,0,0-1.449.6,2.259,2.259,0,0,0-.888.9,1.257,1.257,0,0,0-.092.217.789.789,0,0,0-.021.2A.6.6,0,0,0,29.064,31.677Zm5.864,1.75.183-.378q.14-.279.2-.42t0-.153l-.126.027-.111.015-.057.237c-.074.336-.173.692-.294,1.065Q34.691,33.918,34.928,33.427Z"/><path class="cls-2" d="M42.377,31.656a1.123,1.123,0,0,1-.56.231.41.41,0,0,1-.183-.042.374.374,0,0,1-.161-.14.447.447,0,0,1-.049-.223,1.342,1.342,0,0,1,.19-.617,2.679,2.679,0,0,1,.469-.629,1.72,1.72,0,0,1,.28-.2.526.526,0,0,1,.238-.09.165.165,0,0,1,.118.077.235.235,0,0,1,.064.146.862.862,0,0,1-.232.462,1.154,1.154,0,0,1-.4.364.19.19,0,0,1-.084.014.322.322,0,0,1-.126-.042l-.112-.056-.084.2a1.283,1.283,0,0,0-.1.314c-.019.108-.015.175.014.2.009.029.065.042.168.042a.978.978,0,0,0,.455-.2q.3-.2,1-.756a3.174,3.174,0,0,1,.433-.294c.066-.028.1-.005.113.071,0,.028-.026.065-.078.112s-.132.116-.245.21Q42.727,31.425,42.377,31.656Zm-.323-.875a.319.319,0,0,0,.168-.1,1.455,1.455,0,0,0,.218-.253.556.556,0,0,0,.118-.224.026.026,0,0,0-.007-.02c-.005-.005-.011,0-.02.007-.047,0-.15.069-.309.21a1.582,1.582,0,0,0-.2.23c-.033.052-.04.092-.021.119Z"/><path class="cls-2" d="M45.8,30.34c.071,0,.105.022.105.077a.122.122,0,0,1-.069.1c-.047.027-.183.088-.407.181a2,2,0,0,1-.643.182.263.263,0,0,1-.245-.126.764.764,0,0,1-.078-.391v-.239l-.112.126a9.177,9.177,0,0,0-.84,1.218c-.186.317-.3.477-.349.477a.124.124,0,0,1-.071-.042q-.042-.029-.042-.057l.029-.111a3.517,3.517,0,0,1,.2-.546c.1-.243.2-.444.28-.6.056-.112.1-.193.133-.245s.068-.077.106-.077c.055-.009.087,0,.1.042l.014.057a.354.354,0,0,1-.056.139l-.042.1c0,.018.066-.066.2-.253a1.958,1.958,0,0,1,.349-.4.2.2,0,0,1,.238-.021.159.159,0,0,1,.063.119c0,.052.008.148.008.287a.6.6,0,0,0,.042.28.139.139,0,0,0,.153.056,2.087,2.087,0,0,0,.519-.181A1.7,1.7,0,0,1,45.8,30.34Z"/><path class="cls-2" d="M47.956,30.34c.07,0,.1.022.1.077a.12.12,0,0,1-.069.1c-.047.027-.183.088-.406.181a2,2,0,0,1-.644.182.265.265,0,0,1-.245-.126.765.765,0,0,1-.077-.391v-.239l-.113.126a9.1,9.1,0,0,0-.839,1.218c-.187.317-.3.477-.35.477a.119.119,0,0,1-.07-.042c-.029-.019-.042-.038-.042-.057l.028-.111a3.628,3.628,0,0,1,.2-.546c.1-.243.2-.444.281-.6.055-.112.1-.193.132-.245s.068-.077.106-.077c.056-.009.088,0,.1.042l.014.057A.347.347,0,0,1,46,30.5l-.042.1c0,.018.065-.066.2-.253a1.958,1.958,0,0,1,.349-.4.2.2,0,0,1,.239-.021.161.161,0,0,1,.062.119c0,.052.008.148.008.287a.615.615,0,0,0,.042.28.139.139,0,0,0,.153.056,2.06,2.06,0,0,0,.519-.181A1.7,1.7,0,0,1,47.956,30.34Z"/><path class="cls-2" d="M48.312,31.656a1.12,1.12,0,0,1-.559.231.406.406,0,0,1-.183-.042.374.374,0,0,1-.161-.14.447.447,0,0,1-.049-.223,1.339,1.339,0,0,1,.189-.617,2.707,2.707,0,0,1,.469-.629,1.765,1.765,0,0,1,.28-.2.533.533,0,0,1,.239-.09.165.165,0,0,1,.118.077.233.233,0,0,1,.063.146.866.866,0,0,1-.231.462,1.147,1.147,0,0,1-.4.364.184.184,0,0,1-.084.014.322.322,0,0,1-.126-.042l-.112-.056-.084.2a1.239,1.239,0,0,0-.1.314c-.019.108-.015.175.013.2.01.029.066.042.168.042a.974.974,0,0,0,.455-.2q.3-.2,1-.756a3.158,3.158,0,0,1,.434-.294c.065-.028.1-.005.112.071,0,.028-.025.065-.077.112s-.133.116-.245.21Q48.662,31.425,48.312,31.656Zm-.322-.875a.319.319,0,0,0,.168-.1,1.547,1.547,0,0,0,.218-.253.556.556,0,0,0,.118-.224.026.026,0,0,0-.007-.02c-.005-.005-.012,0-.021.007-.047,0-.149.069-.308.21a1.521,1.521,0,0,0-.2.23c-.034.052-.04.092-.022.119Z"/><path class="cls-2" d="M51.735,30.34c.07,0,.1.022.1.077a.12.12,0,0,1-.069.1c-.047.027-.183.088-.406.181a2,2,0,0,1-.644.182.265.265,0,0,1-.245-.126.765.765,0,0,1-.077-.391v-.239l-.112.126a9.078,9.078,0,0,0-.84,1.218c-.187.317-.3.477-.35.477a.122.122,0,0,1-.07-.042q-.042-.029-.042-.057l.028-.111a3.66,3.66,0,0,1,.2-.546q.154-.364.28-.6c.056-.112.1-.193.133-.245s.067-.077.1-.077c.056-.009.088,0,.1.042l.013.057a.347.347,0,0,1-.055.139l-.042.1c0,.018.065-.066.2-.253a1.985,1.985,0,0,1,.35-.4.2.2,0,0,1,.238-.021.158.158,0,0,1,.062.119c.005.052.008.148.008.287a.615.615,0,0,0,.042.28.14.14,0,0,0,.154.056,2.072,2.072,0,0,0,.518-.181A1.713,1.713,0,0,1,51.735,30.34Z"/><path class="cls-2" d="M53.906,30.375a.142.142,0,0,1,.035.084,3.768,3.768,0,0,1-.386.448q-.386.421-.594.617a.817.817,0,0,1-.518.294c-.131,0-.21-.089-.238-.267v-.069a1.32,1.32,0,0,1,.013-.21.55.55,0,0,0,.015-.2l-.351.308c-.112.1-.2.185-.28.245s-.126.106-.153.133a.379.379,0,0,1-.168.042.273.273,0,0,1-.2-.056.265.265,0,0,1-.071-.2,1,1,0,0,1,.141-.434,3.377,3.377,0,0,1,.44-.671,1.438,1.438,0,0,1,.484-.407.615.615,0,0,1,.139-.055.217.217,0,0,1,.113,0,.346.346,0,0,1,.223.279v.07c0,.121-.032.183-.1.183-.084,0-.126-.07-.126-.211a.2.2,0,0,0-.014-.084.044.044,0,0,0-.042-.027c-.1,0-.257.116-.463.349a3.042,3.042,0,0,0-.476.714,1.1,1.1,0,0,0-.1.322c0,.047.047.034.139-.042s.281-.242.56-.5a3.773,3.773,0,0,1,.5-.433.1.1,0,0,1,.126.013c.037.038.042.1.014.2a2.608,2.608,0,0,0-.12.356,1.224,1.224,0,0,0-.048.287c0,.1.018.155.055.155s.152-.078.316-.232.371-.366.623-.637a3.747,3.747,0,0,1,.433-.406C53.861,30.333,53.882,30.347,53.906,30.375Z"/></g></svg>